<svg width="181" height="56" viewBox="0 0 181 56" fill="none" xmlns="http://www.w3.org/2000/svg">
<path fill-rule="evenodd" clip-rule="evenodd" d="M14.0301 56H18.2406V33.6H14.0301V56ZM29.4643 55.664H33.2355V41.531L49.109 56V33.936H45.3484V47.8275L29.4643 33.6V55.664ZM57.7179 50.239C59.7704 51.8315 62.2341 52.752 64.8753 52.752C67.448 52.752 69.2527 51.87 69.2527 49.9222C69.2527 48.2248 68.1017 47.5597 66.0861 46.816L62.8228 45.6873C59.8144 44.6232 57.5264 43.0692 57.5264 39.4975C57.5264 35.6772 60.99 33.6 65.1319 33.6C67.6694 33.6 69.982 34.2352 71.7885 35.3605V39.1493C69.9099 37.7668 67.8539 36.8148 65.2127 36.8148C62.9388 36.8148 61.2395 37.66 61.2395 39.4222C61.2395 41.0148 62.3062 41.6517 64.1847 42.2923L67.8205 43.5627C71.3439 44.7965 72.9606 46.7093 72.9606 49.8558C72.9606 53.8143 69.4636 56 64.8753 56C61.8598 56 59.296 55.16 57.7179 54.0995V50.239ZM82.7838 56H86.9925V33.6H82.7838V56ZM106.737 52.6102C111.482 52.6102 114.018 49.5793 114.018 44.7948C114.018 39.9753 111.48 36.9548 106.737 36.9548H102.045V52.6102H106.737ZM98.2145 33.6H106.878C113.547 33.6 117.859 37.975 117.859 44.7948C117.859 51.6198 113.547 56 106.878 56H98.2145V33.6ZM138.908 33.6V36.9548H128.721V42.3447H137.857V45.661H128.719V52.6102H138.908V56H124.876V33.6H138.908ZM153.848 43.743H158.025C160.498 43.743 161.891 42.392 161.891 40.3148C161.891 38.2375 160.498 36.8848 158.025 36.8848H153.848V43.7448V43.743ZM153.848 46.9105V56H150.132V33.6H158.096C162.636 33.6 165.575 35.9293 165.575 40.3148C165.575 44.065 163.944 46.2192 160.47 46.7722L168.372 56H164.144L156.493 46.9122H153.85L153.848 46.9105ZM12.5593 11.5325C14.2059 10.9323 15.4887 9.1315 15.4887 6.65525C15.4887 2.52875 12.5593 0.39025 7.87262 0.39025H0V23.4255H8.60365C13.2903 23.4255 16.2197 21.1365 16.2197 16.8228C16.2197 14.3832 14.6821 12.2448 12.5593 11.5325ZM3.69732 10.0695V3.76775H7.83748C10.4383 3.76775 11.8283 4.70575 11.8283 6.881C11.8283 9.05625 10.4365 10.0695 7.83748 10.0695H3.69732ZM3.69732 13.2965H8.52985C11.0955 13.2965 12.4855 14.5705 12.4855 16.6723C12.4855 18.7355 11.0937 20.0497 8.5316 20.0497H3.69908V13.2948L3.69732 13.2965ZM33.3971 23.8C38.7797 23.8 42.405 20.573 42.405 14.2712V0.39025H38.5969V13.8197C38.5969 18.2472 36.7658 20.3123 33.3971 20.3123C30.0284 20.3123 28.1991 18.2472 28.1991 13.8197V0.39025H24.3911V14.2328C24.3911 20.573 28.0515 23.8 33.3971 23.8ZM51.3706 21.7735C52.9451 22.9005 55.509 23.8 58.5104 23.8C63.0882 23.8 66.5658 21.4725 66.5658 17.2725C66.5658 13.9335 64.9562 11.907 61.4398 10.5945L57.8163 9.2435C55.9483 8.56975 54.8869 7.89425 54.8869 6.2055C54.8869 4.3295 56.5704 3.43 58.8408 3.43C61.4767 3.43 63.5275 4.4415 65.3955 5.90625V1.89C63.6013 0.69125 61.294 0.01575 58.767 0.01575C54.6304 0.01575 51.1879 2.2295 51.1879 6.28075C51.1879 10.0695 53.4583 11.7198 56.4597 12.845L59.7195 14.0455C61.7333 14.833 62.8685 15.547 62.8685 17.3477C62.8685 19.411 61.0743 20.349 58.5104 20.349C55.8745 20.349 53.4214 19.3725 51.3706 17.6855V21.7735ZM80.1725 0.39025H76.3662V23.4237H80.1725V0.39025ZM91.036 23.3958H94.7052V8.4105L110.148 23.7528V0.35525H106.49V15.085L91.036 0V23.3958ZM133.944 0.3955V3.84475H124.057V9.38875H132.923V12.7995H124.057V19.9447H133.944V23.4307H120.325V0.3955H133.944ZM142.809 21.7577C144.384 22.8847 146.946 23.7842 149.949 23.7842C154.525 23.7842 158.004 21.4585 158.004 17.2568C158.004 13.9178 156.393 11.893 152.878 10.5788L149.253 9.2295C147.385 8.554 146.324 7.8785 146.324 6.18975C146.324 4.31375 148.007 3.41425 150.277 3.41425C152.913 3.41425 154.964 4.4275 156.832 5.8905V1.876C155.038 0.6755 152.731 0 150.204 0C146.067 0 142.624 2.21375 142.624 6.265C142.624 10.0538 144.895 11.704 147.896 12.8292L151.156 14.0298C153.17 14.8173 154.305 15.5312 154.305 17.332C154.305 19.3953 152.513 20.3333 149.947 20.3333C147.311 20.3333 144.858 19.3585 142.809 17.6698V21.7577ZM165.805 21.7577C167.379 22.8847 169.943 23.7842 172.945 23.7842C177.522 23.7842 181 21.4585 181 17.2568C181 13.9178 179.389 11.893 175.874 10.5788L172.249 9.2295C170.382 8.554 169.319 7.8785 169.319 6.18975C169.319 4.31375 171.005 3.41425 173.273 3.41425C175.909 3.41425 177.962 4.4275 179.828 5.8905V1.876C178.035 0.6755 175.728 0 173.201 0C169.063 0 165.622 2.21375 165.622 6.265C165.622 10.0538 167.892 11.704 170.894 12.8292L174.154 14.0298C176.167 14.8173 177.303 15.5312 177.303 17.332C177.303 19.3953 175.508 20.3333 172.945 20.3333C170.309 20.3333 167.856 19.3585 165.805 17.6698V21.7577Z" fill="#050F32"/>
</svg>
