<svg width="206" height="29" viewBox="0 0 206 29" fill="none" xmlns="http://www.w3.org/2000/svg">
<g clip-path="url(#clip0_46_2)">
<path d="M0 14.4796C0 6.52235 6.50462 0.131375 14.6376 0.131375C19.6004 0.0966006 24.2591 2.57078 27.0094 6.70173L20.9114 10.239C20.5585 9.73508 20.1505 9.28046 19.6876 8.87517C19.2246 8.46989 18.72 8.12561 18.1739 7.84239C17.6277 7.55917 17.0556 7.34512 16.4575 7.2003C15.8596 7.05547 15.2529 6.98396 14.6377 6.98588C10.4557 6.98588 7.02849 10.4717 7.02849 14.4796C7.02849 18.4875 10.4557 21.9733 14.6377 21.9733C15.2819 21.9771 15.9163 21.8997 16.5407 21.7411C17.1652 21.5825 17.7596 21.3478 18.3239 21.037C18.8882 20.7261 19.4043 20.3492 19.8721 19.9062C20.3399 19.4632 20.7443 18.9684 21.0854 18.4218L27.123 22.0231C24.4049 26.2769 19.6822 28.8475 14.6341 28.8207C6.50462 28.8278 0 22.3142 0 14.4796ZM104.298 22.2894L110.648 18.9652C111.697 21.2399 113.796 22.5806 116.771 22.5806C119.511 22.5806 120.56 21.7069 120.56 20.4817C120.56 16.0423 105.518 18.7326 105.518 8.58408C105.518 2.9869 110.415 0.0142647 116.478 0.0142647C121.084 0.0142647 125.165 2.05463 127.381 5.84412L121.088 9.17366C120.155 7.30732 118.406 6.25787 116.19 6.25787C114.034 6.25787 112.983 7.01611 112.983 8.29823C112.983 12.6133 128.026 9.87333 128.026 20.1959C128.026 25.5604 123.654 28.8243 116.598 28.8243C110.593 28.8189 106.395 26.8371 104.298 22.2894ZM150.716 11.6455C150.315 8.85751 147.415 6.70173 143.988 6.69641C140.676 6.69641 138.002 8.66039 136.951 11.6206L150.716 11.6455ZM129.741 14.5115C129.757 6.78518 135.287 0.174022 144.057 0.189986C152.19 0.205988 157.928 6.72125 157.908 14.3961C157.91 15.1549 157.849 15.9126 157.73 16.662L136.704 16.6229C137.51 19.9347 140.236 22.3214 144.361 22.3302C146.858 22.3302 149.532 21.4104 151.162 19.3221L156.035 23.2288C153.529 26.7679 149.109 28.8508 144.407 28.8419C136.105 28.8136 129.727 22.5859 129.741 14.5115ZM60.1771 17.6156V0.712051H67.3192V16.7455C67.3192 20.2881 69.2939 22.38 72.7211 22.38C76.555 22.38 78.7587 20.0555 78.7587 15.5823V0.712051H85.9044V28.3039H78.764V25.1075C77.0806 27.7215 74.3495 29 70.5742 29C64.185 29.0018 60.1771 24.3546 60.1771 17.6156ZM96.1594 3.90845V0.712051L89.0155 0.728053L89.0759 28.3181L96.2198 28.3021L96.1807 13.4354C96.1701 8.96405 98.3738 6.63603 102.206 6.62716C102.45 6.6279 102.695 6.64153 102.938 6.66799L104.255 0C100.526 0.0301923 97.8233 1.31228 96.1594 3.90845ZM167.948 3.90667V0.710277H160.804V28.3039H167.948V13.4354C167.948 8.96228 170.157 6.63958 173.986 6.63958C174.24 6.63958 174.481 6.65735 174.717 6.68041L176.042 0.0195123C172.318 0.0390615 169.619 1.31582 167.948 3.90667ZM198.282 14.6536C198.266 10.4757 194.824 7.04712 190.646 7.04712C186.457 7.04712 183.01 10.4941 183.01 14.6829V14.7122C183.01 18.5461 186.437 21.9734 190.621 21.9734C194.856 21.9733 198.282 18.5461 198.282 14.6536ZM175.976 14.7122C175.976 6.05713 183.005 0.189986 189.396 0.189986C193.752 0.189986 196.25 1.52536 197.934 4.08247L198.603 0.708503H205.136V28.3039H198.603L197.76 25.4627C195.844 27.5545 193.461 28.8367 189.396 28.8367C183.122 28.8278 175.976 23.3087 175.976 14.7122ZM50.6732 14.4796C50.6732 10.5302 47.246 7.04442 43.0055 7.04442C38.8236 7.04442 35.3963 10.5302 35.3963 14.4796C35.3963 18.4875 38.8235 21.9733 43.0055 21.9733C47.2531 21.9733 50.6732 18.4875 50.6732 14.4796ZM28.3678 14.4796C28.3678 6.57919 34.8725 0.189986 43.0055 0.189986C51.1953 0.189986 57.7017 6.58274 57.7017 14.4796C57.7017 22.3213 51.1953 28.8278 43.0055 28.8278C34.8725 28.8278 28.3678 22.3142 28.3678 14.4796Z" fill="#061031"/>
</g>
<defs>
<clipPath id="clip0_46_2">
<rect width="205.136" height="29" fill="white"/>
</clipPath>
</defs>
</svg>
