<svg width="185" height="41" viewBox="0 0 185 41" fill="none" xmlns="http://www.w3.org/2000/svg">
<g clip-path="url(#clip0_103_55)">
<path d="M48.3691 8.53052H51.4525V17.4305C52.7051 15.5305 54.4395 14.5305 56.4629 14.5305C59.2572 14.5305 60.8952 16.1305 60.8952 19.3305V30.2305H57.8118V20.2305C57.8118 18.0305 57.041 17.4305 55.4993 17.4305C54.5358 17.4305 53.6686 18.0305 52.8014 19.1305C51.9342 20.3305 51.5488 21.8305 51.5488 23.7305V30.2305H48.4655L48.3691 8.53052Z" fill="#3A3938"/>
<path d="M76.3125 23.3304H65.8099C65.8099 25.7304 67.1589 27.6304 69.4714 27.6304C71.1094 27.6304 72.651 26.6304 73.3255 25.0304L75.9271 26.1304C74.3854 29.1304 72.651 30.4304 69.375 30.4304C64.4609 30.4304 62.4375 26.1304 62.4375 22.4304C62.4375 18.7304 64.4609 14.4304 69.375 14.4304C74.0964 14.4304 76.2161 18.4304 76.2161 21.9304V23.3304H76.3125ZM65.9062 20.7304H73.1328C72.8438 18.8304 71.5911 17.3304 69.5677 17.3304C67.5443 17.3304 66.2917 18.7304 65.9062 20.7304Z" fill="#3A3938"/>
<path d="M100.4 14.5304C101.171 14.5304 101.846 14.7304 102.713 15.1304C103.484 15.5304 104.062 15.9304 104.447 16.4304V8.43042H107.531V30.1304H104.447V28.3304C103.869 29.3304 102.231 30.3304 100.4 30.3304C96.0644 30.3304 93.752 27.4304 93.752 22.3304C93.752 17.5304 96.0644 14.5304 100.4 14.5304ZM96.9316 22.4304C96.9316 24.0304 97.317 25.2304 97.9915 26.2304C98.666 27.1304 99.6296 27.6304 100.689 27.6304C101.846 27.6304 102.713 27.1304 103.387 26.2304C104.062 25.3304 104.447 24.0304 104.447 22.4304C104.447 20.8304 104.062 19.6304 103.387 18.7304C102.713 17.8304 101.749 17.3304 100.689 17.3304C99.5332 17.3304 98.666 17.8304 97.9915 18.7304C97.317 19.6304 96.9316 20.9304 96.9316 22.4304Z" fill="#3A3938"/>
<path d="M119.189 16.9305L117.262 18.7305C116.588 17.8305 115.721 17.3305 114.661 17.3305C113.794 17.3305 113.215 17.9305 113.215 18.8305C113.215 19.1305 113.312 19.5305 113.601 19.7305C114.083 20.2305 114.564 20.5305 115.913 21.0305C116.973 21.4305 117.359 21.6305 118.226 22.1305C119.382 22.8305 119.96 23.8305 120.057 25.4305C120.057 26.8305 119.575 27.9305 118.611 28.9305C117.648 29.8305 116.395 30.3305 114.854 30.3305C112.059 30.3305 110.036 28.4305 109.072 26.2305L111.674 24.7305C112.445 26.6305 113.601 27.5305 114.95 27.5305C116.299 27.5305 116.973 26.8305 116.973 25.5305C116.973 25.0305 116.781 24.6305 116.202 24.3305C115.913 24.1305 115.721 24.0305 115.432 23.9305C114.95 23.7305 113.89 23.3305 113.408 23.1305C111.288 22.2305 110.229 20.8305 110.229 18.9305C110.229 17.7305 110.71 16.6305 111.481 15.8305C112.348 14.9305 113.408 14.5305 114.757 14.5305C116.588 14.5305 118.226 15.4305 119.189 16.9305Z" fill="#3A3938"/>
<path d="M129.018 30.4305C127.284 30.4305 125.742 29.5305 125.068 28.4305V36.4305H121.984V14.7305H125.068V16.5305C125.646 15.5305 127.284 14.5305 129.115 14.5305C133.451 14.5305 135.763 17.4305 135.763 22.5305C135.667 27.3305 133.354 30.4305 129.018 30.4305ZM132.487 22.4305C132.487 20.8305 132.102 19.6305 131.427 18.7305C130.753 17.8305 129.789 17.3305 128.729 17.3305C127.573 17.3305 126.706 17.8305 126.031 18.7305C125.357 19.6305 124.971 20.9305 124.971 22.4305C124.971 24.0305 125.357 25.2305 126.031 26.2305C126.706 27.1305 127.669 27.6305 128.729 27.6305C129.885 27.6305 130.753 27.1305 131.427 26.2305C132.102 25.3305 132.487 24.0305 132.487 22.4305Z" fill="#3A3938"/>
<path d="M166.019 26.1304C164.766 28.9304 162.646 30.4304 159.563 30.4304C157.347 30.4304 155.613 29.6304 154.36 28.1304C153.107 26.6304 152.529 24.7304 152.529 22.4304C152.529 20.1304 153.107 18.2304 154.36 16.7304C155.613 15.2304 157.347 14.4304 159.563 14.4304C162.646 14.4304 164.766 15.8304 166.019 18.7304L163.321 19.9304C162.55 18.1304 161.298 17.2304 159.66 17.2304C157.154 17.2304 155.902 19.3304 155.902 22.3304C155.902 25.4304 157.154 27.4304 159.66 27.4304C161.298 27.4304 162.55 26.5304 163.321 24.7304L166.019 26.1304Z" fill="#3A3938"/>
<path d="M180.857 23.3304H170.355C170.355 25.7304 171.704 27.6304 174.016 27.6304C175.654 27.6304 177.196 26.6304 177.87 25.0304L180.472 26.1304C178.93 29.1304 177.196 30.4304 173.92 30.4304C169.006 30.4304 166.982 26.1304 166.982 22.4304C166.982 18.7304 169.006 14.4304 173.92 14.4304C178.641 14.4304 180.761 18.4304 180.761 21.9304V23.3304H180.857ZM170.451 20.7304H177.678C177.389 18.8304 176.136 17.3304 174.113 17.3304C172.089 17.3304 170.74 18.7304 170.451 20.7304Z" fill="#3A3938"/>
<path d="M84.792 14.5305C85.5628 14.5305 86.2373 14.7305 87.1045 15.1305C87.8753 15.5305 88.4534 15.9305 88.8388 16.4305V14.7305H91.9222V30.2305H89.3206L88.8388 28.4305C88.2607 29.4305 86.6227 30.4305 84.792 30.4305C80.456 30.4305 78.1435 27.5305 78.1435 22.4305C78.0472 17.6305 80.3597 14.5305 84.792 14.5305ZM81.3232 22.5305C81.3232 24.1305 81.7086 25.3305 82.3831 26.3305C83.0576 27.2305 84.0211 27.7305 85.081 27.7305C86.2373 27.7305 87.1044 27.2305 87.7789 26.3305C88.4534 25.4305 88.8388 24.1305 88.8388 22.5305C88.8388 20.9305 88.4534 19.7305 87.7789 18.8305C87.1044 17.9305 86.1409 17.4305 85.081 17.4305C83.9248 17.4305 83.0576 17.9305 82.3831 18.8305C81.7086 19.6305 81.3232 20.9305 81.3232 22.5305Z" fill="#3A3938"/>
<path d="M143.856 14.5305C144.627 14.5305 145.302 14.7305 146.169 15.1305C146.94 15.5305 147.518 15.9305 147.903 16.4305V14.7305H150.987V30.2305H148.385L147.903 28.4305C147.325 29.4305 145.687 30.4305 143.856 30.4305C139.52 30.4305 137.208 27.5305 137.208 22.4305C137.112 17.6305 139.424 14.5305 143.856 14.5305ZM140.388 22.5305C140.388 24.1305 140.773 25.3305 141.448 26.3305C142.122 27.2305 143.086 27.7305 144.145 27.7305C145.302 27.7305 146.169 27.2305 146.843 26.3305C147.518 25.4305 147.903 24.1305 147.903 22.5305C147.903 20.9305 147.518 19.7305 146.843 18.8305C146.169 17.9305 145.205 17.4305 144.145 17.4305C142.989 17.4305 142.122 17.9305 141.448 18.8305C140.677 19.6305 140.388 20.9305 140.388 22.5305Z" fill="#3A3938"/>
<path d="M38.8307 20.5304C39.3125 27.1304 36.3255 30.8304 34.5911 33.4304C31.8932 36.4304 28.3281 40.5304 19.5599 40.7304C12.0443 41.0304 8.38281 37.6304 5.29948 34.6304C1.2526 30.0304 0.192708 27.2304 0 20.5304C0 16.3304 1.54167 12.2304 4.23958 8.53042C7.9974 3.03042 13.9714 1.13041 19.5599 0.730413C25.3411 0.530413 29.9661 3.53041 33.1458 6.83042C37.1927 11.3304 38.4453 15.1304 38.8307 20.5304Z" fill="#F06800"/>
<path d="M184.037 15.1304C183.94 15.0304 183.844 14.9304 183.748 14.8304C183.651 14.7304 183.459 14.6304 183.362 14.6304C182.977 14.5304 182.495 14.5304 182.11 14.8304C182.013 14.9304 181.917 15.0304 181.821 15.1304C181.724 15.2304 181.724 15.4304 181.628 15.5304C181.532 15.9304 181.532 16.4304 181.821 16.7304C181.917 16.8304 182.013 16.9304 182.11 17.0304C182.206 17.1304 182.399 17.2304 182.495 17.2304C182.591 17.2304 182.784 17.3304 182.881 17.3304C183.17 17.3304 183.459 17.2304 183.651 17.0304C183.748 16.9304 183.844 16.8304 183.94 16.7304C184.037 16.6304 184.037 16.4304 184.133 16.3304C184.326 15.9304 184.23 15.4304 184.037 15.1304ZM183.748 16.6304C183.651 16.7304 183.555 16.8304 183.555 16.9304C183.459 17.0304 183.362 17.0304 183.266 17.1304C182.881 17.2304 182.591 17.2304 182.302 16.9304C182.206 16.8304 182.11 16.7304 182.11 16.6304C182.013 16.5304 182.013 16.4304 181.917 16.3304C181.917 16.2304 181.821 16.1304 181.821 15.9304C181.821 15.7304 181.917 15.4304 182.013 15.2304C182.11 15.1304 182.206 15.0304 182.302 14.9304C182.399 14.8304 182.495 14.8304 182.591 14.7304C182.977 14.6304 183.266 14.6304 183.555 14.9304C183.651 15.0304 183.748 15.1304 183.748 15.2304C183.844 15.3304 183.844 15.4304 183.94 15.5304C184.037 15.9304 183.94 16.3304 183.748 16.6304Z" fill="#3A3938"/>
<path d="M183.073 16.0304C183.169 16.0304 183.266 16.0304 183.362 15.9304C183.555 15.7304 183.555 15.4304 183.458 15.3304C183.266 15.1304 183.169 15.1304 182.977 15.1304H182.398V16.7304H182.591V16.0304H182.88L183.266 16.7304H183.555L183.073 16.0304ZM182.88 15.8304H182.591V15.3304C182.784 15.3304 182.977 15.3304 183.169 15.3304C183.266 15.4304 183.266 15.5304 183.266 15.6304C183.266 15.7304 183.169 15.7304 183.073 15.7304C182.977 15.8304 182.977 15.8304 182.88 15.8304Z" fill="#3A3938"/>
</g>
<defs>
<clipPath id="clip0_103_55">
<rect width="185" height="40" fill="white" transform="translate(0 0.730469)"/>
</clipPath>
</defs>
</svg>
