<svg width="167" height="86" viewBox="0 0 167 86" fill="none" xmlns="http://www.w3.org/2000/svg">
<path d="M6 15.7433H13.0205V19.8176H13.1082C14.6469 16.628 17.73 15.2195 21.2344 15.2195C24.3936 15.2195 27.0263 16.5931 28.1963 19.4859C29.9924 16.5058 32.9469 15.2311 36.1119 15.2311C42.5473 15.2311 43.9807 18.8456 43.9807 24.8465V37.9134H36.2816V25.9989C36.2816 23.4845 35.3806 21.6161 33.2043 21.6161C30.4663 21.6161 28.8399 23.7872 28.8399 28.5541V37.9134H21.1408V25.9989C21.1408 23.4845 20.2457 21.6161 18.0635 21.6161C15.3255 21.6161 13.6991 23.7872 13.6991 28.5541V37.9134H6V15.7433Z" fill="#050F32"/>
<path d="M61.8184 37.9135C61.7775 36.7494 61.6488 35.5853 61.6488 34.4212H61.5435C59.7884 37.186 57.653 38.4199 54.4879 38.4199C50.0826 38.4199 46.1511 36.2489 46.1511 31.4354C46.1511 24.672 53.546 23.8688 57.653 23.8688C58.8564 23.8725 60.0576 23.9718 61.2451 24.1656C61.2041 21.1448 58.9342 20.3358 56.1553 20.3358C53.6863 20.2778 51.2435 20.8488 49.0588 21.9946L48.9301 16.8028C51.7622 15.697 54.7867 15.1609 57.8285 15.2254C63.5151 15.2254 68.4352 17.6525 68.4352 24.4159V32.6809C68.4067 34.4367 68.5498 36.1911 68.8623 37.9193L61.8184 37.9135ZM56.5121 33.3154C59.4373 33.3154 61.2568 30.6787 61.2568 28.077C60.2739 28.0362 59.1624 27.9489 58.004 27.9489C55.3947 27.9489 53.3237 28.7579 53.3237 30.8591C53.3529 32.4248 54.7161 33.3154 56.5121 33.3154Z" fill="#050F32"/>
<path d="M72.7236 6H80.4227V37.9135H72.7236V6Z" fill="#050F32"/>
<path d="M99.1556 37.9135C99.1147 36.7494 98.986 35.5853 98.986 34.4212H98.8982C97.1431 37.1859 95.0077 38.4198 91.8426 38.4198C87.4373 38.4198 83.5 36.2488 83.5 31.4353C83.5 24.672 90.9007 23.8687 95.0077 23.8687C96.2111 23.8725 97.4123 23.9718 98.5998 24.1656C98.5589 21.1448 96.2889 20.3357 93.51 20.3357C91.0391 20.2768 88.5941 20.8478 86.4076 21.9945L86.2789 16.8027C89.1112 15.6973 92.1356 15.1611 95.1774 15.2254C100.864 15.2254 105.784 17.6525 105.784 24.4159V32.6809C105.756 34.4366 105.899 36.191 106.211 37.9193L99.1556 37.9135ZM93.8552 33.3211C96.7804 33.3211 98.5998 30.6845 98.5998 28.0827C97.617 28.042 96.5054 27.9547 95.3529 27.9547C92.7436 27.9547 90.6726 28.7637 90.6726 30.8649C90.6726 32.4248 92.0533 33.3153 93.8552 33.3153V33.3211Z" fill="#050F32"/>
<path d="M125.073 21.8722C124.221 21.6587 123.341 21.5723 122.464 21.6161C118.871 21.6161 116.859 24.2121 116.859 28.5541V37.9134H109.166V15.7433H116.186V19.8176H116.274C117.602 17.0064 119.527 15.2195 122.861 15.2195C123.737 15.2355 124.609 15.3212 125.471 15.4756L125.073 21.8722Z" fill="#050F32"/>
<path d="M135.212 12.1289H127.512V6.51221H135.212V12.1289ZM127.512 15.7493H135.212V37.9135H127.512V15.7493Z" fill="#050F32"/>
<path d="M153.944 37.9135C153.903 36.7494 153.775 35.5853 153.775 34.4212H153.687C151.932 37.1859 149.797 38.4199 146.631 38.4199C142.226 38.4199 138.289 36.2488 138.289 31.4353C138.289 24.672 145.69 23.8688 149.797 23.8688C151 23.8725 152.201 23.9718 153.389 24.1656C153.348 21.1448 151.078 20.3357 148.299 20.3357C145.828 20.2768 143.383 20.8479 141.196 21.9946L141.068 16.8027C143.9 15.6971 146.924 15.161 149.966 15.2254C155.659 15.2254 160.573 17.6525 160.573 24.4159V32.6809C160.545 34.4366 160.689 36.1909 161 37.9193L153.944 37.9135ZM148.644 33.3212C151.569 33.3212 153.395 30.6845 153.395 28.0828C152.412 28.042 151.3 27.9547 150.142 27.9547C147.532 27.9547 145.461 28.7637 145.461 30.8649C145.461 32.4248 146.848 33.3153 148.638 33.3153L148.644 33.3212Z" fill="#050F32"/>
<path d="M44.4604 51.6846C42.6975 51.6846 41.3558 52.5654 40.4354 54.3271C39.5149 56.0887 39.0527 58.6051 39.0488 61.8762C39.0488 65.1861 39.5071 67.7083 40.4237 69.4428C41.3402 71.1772 42.6858 72.0464 44.4604 72.0503C48.0799 72.0503 49.8896 68.657 49.8896 61.8703C49.8896 55.0837 48.0799 51.6885 44.4604 51.6846Z" fill="#050F32"/>
<path d="M100.922 51.6846C99.1596 51.6846 97.8179 52.5654 96.8974 54.3271C95.9769 56.0887 95.5167 58.6109 95.5167 61.8936C95.5167 65.2035 95.975 67.7257 96.8916 69.4602C97.8081 71.1947 99.1537 72.0639 100.928 72.0678C104.548 72.0678 106.357 68.6744 106.357 61.8878C106.357 55.1012 104.546 51.7001 100.922 51.6846Z" fill="#050F32"/>
<path d="M129.542 56.2188C129.542 53.5026 127.873 52.1445 124.535 52.1445H120.866V60.5143H124.47C125.803 60.5727 127.11 60.1372 128.138 59.292C128.589 58.9172 128.949 58.4464 129.192 57.9144C129.435 57.3825 129.555 56.803 129.542 56.2188V56.2188Z" fill="#050F32"/>
<path d="M6.54993 43.0471V79H160.503V43.0471H6.54993ZM25.8152 74.0992H22.6443L13.8688 54.8161V74.0992H10.9904V49.6533H14.1554L22.9953 68.7618V49.6533H25.7977L25.8152 74.0992ZM50.7613 71.3112C50.0933 72.3574 49.1593 73.2093 48.0538 73.7807C46.9483 74.3521 45.7107 74.6226 44.4662 74.5648C43.2263 74.619 41.9938 74.3474 40.8929 73.7773C39.7919 73.2071 38.8613 72.3586 38.1946 71.317C36.7515 69.1518 36.03 66.0107 36.03 61.8937C36.03 57.7767 36.7476 54.6279 38.1829 52.4471C38.8489 51.4032 39.7801 50.5526 40.8823 49.9813C41.9845 49.41 43.2188 49.1383 44.4604 49.1935C45.703 49.138 46.9384 49.4089 48.0424 49.979C49.1464 50.5491 50.0801 51.3983 50.7496 52.4413C52.1927 54.6065 52.9142 57.7534 52.9142 61.8821C52.9142 66.0107 52.1966 69.1479 50.7613 71.2937V71.3112ZM84.7754 74.0992H82.0198V53.1456L78.3166 63.1684H75.6195L71.9162 53.1456V74.0992H69.149V49.6533H72.8581L76.9534 60.782L81.0487 49.6533H84.7578L84.7754 74.0992ZM107.217 71.3112C106.509 72.3151 105.568 73.1346 104.473 73.7003C103.379 74.266 102.164 74.5613 100.931 74.5613C99.6981 74.5613 98.4831 74.266 97.389 73.7003C96.2948 73.1346 95.3536 72.3151 94.645 71.3112C93.2019 69.146 92.4803 66.0049 92.4803 61.8879C92.4803 57.7709 93.1999 54.6259 94.6391 52.453C95.3478 51.449 96.289 50.6296 97.3831 50.0638C98.4773 49.4981 99.6923 49.2028 100.925 49.2028C102.158 49.2028 103.373 49.4981 104.468 50.0638C105.562 50.6296 106.503 51.449 107.212 52.453C108.655 54.6182 109.376 57.7651 109.376 61.8937C109.376 66.0223 108.659 69.1557 107.223 71.2937L107.217 71.3112ZM131.204 74.0992L124.031 62.988H120.866V74.0992H118.011V49.6533H124.956C127.296 49.6533 129.137 50.216 130.479 51.3413C131.155 51.9212 131.69 52.6476 132.041 53.4649C132.391 54.2821 132.55 55.1684 132.503 56.0558C132.513 57.5144 131.987 58.9264 131.023 60.0254C129.953 61.2359 128.515 62.0657 126.927 62.3884L134.796 74.0992H131.204ZM155.735 74.0992H142.928V49.6533H155.647V52.127H145.789V59.6936H155.272V62.1673H145.789V71.6022H155.735V74.0992Z" fill="#050F32"/>
<rect x="0.5" y="0.5" width="166" height="85" stroke="#050F32"/>
</svg>
