<svg width="132" height="118" viewBox="0 0 132 118" fill="none" xmlns="http://www.w3.org/2000/svg">
<g clip-path="url(#clip0_103_22)">
<path d="M16.3042 18.3195H10.7012V37.8636H5.90858V18.3195H0.170668V14.4044H17.0804L16.3042 18.3195ZM18.6332 13.932L23.2576 12.8511C23.4608 13.7971 23.5604 15.4181 23.5604 17.0703V20.5134C23.5604 21.0535 23.4931 21.7632 23.4931 21.9654C24.6755 20.8514 26.6334 20.1092 28.3881 20.1092C30.5139 20.1092 32.3362 21.1219 32.876 22.5737C33.2147 23.5523 33.3154 23.821 33.3154 25.7805V37.8627H28.8931V26.2514C28.8931 24.5306 28.4221 23.8893 27.1384 23.8893C26.025 23.8893 24.5731 24.5649 23.5604 25.475V37.8627H18.9702V17.8808C18.9702 16.26 18.8362 14.6418 18.6332 13.932ZM49.4153 33.2713L51.17 35.9733C49.1789 37.593 47.0869 38.3694 44.6565 38.3694C39.695 38.3694 36.4883 34.8581 36.4883 29.4248C36.4883 26.3186 37.1298 24.2612 38.6484 22.5729C40.0661 20.9861 41.7869 20.2439 44.0826 20.2439C46.0744 20.2439 47.9631 20.9178 49.0783 22.067C50.665 23.6852 51.373 26.0158 51.373 29.6277V30.6727H41.3816V30.8084C41.3816 33.4743 42.6988 34.9945 45.0278 34.9945C46.5795 34.9947 48.0313 34.4204 49.4153 33.2713ZM41.4497 27.3656H46.6818V27.1634C46.6818 25.8795 46.547 25.2055 46.142 24.5639C45.7035 23.8901 45.0617 23.5512 44.1508 23.5512C42.4284 23.5512 41.4498 24.9009 41.4498 27.2972V27.3656H41.4497ZM0 43.4493H4.99571L7.0209 52.6984C7.99937 57.0859 8.26982 60.4265 8.26982 60.4265C8.37054 59.5163 8.77576 56.174 9.48377 52.933L11.5771 43.4495H16.7409L18.9009 53.9456C19.3403 56.1399 19.9135 60.1562 19.9135 60.1562C19.9818 59.4151 20.7922 54.3186 21.1975 52.3591L23.1203 43.4495H28.0819L22.4105 67.1097H17.2486L15.1552 57.5576C14.3447 53.9134 14.0744 50.9412 14.0419 50.739C14.0419 50.739 13.5685 54.0481 12.8927 57.4911L10.9699 67.1097H5.60302L0 43.4493ZM41.8165 62.2706L43.5712 64.9715C41.5802 66.5916 39.4885 67.3677 37.0581 67.3677C32.0966 67.3677 28.8897 63.8563 28.8897 58.4241C28.8897 55.3169 29.5314 53.2602 31.0499 51.5712C32.4676 49.9851 34.1883 49.2431 36.4841 49.2431C38.476 49.2431 40.3646 49.9169 41.4797 51.0662C43.0665 52.6847 43.7745 55.0144 43.7745 58.6261V59.6711H33.7831V59.8077C33.7831 62.4727 35.1003 63.9929 37.4292 63.9929C38.9809 63.9929 40.4328 63.4198 41.8165 62.2706ZM33.8513 56.3638H39.0833V56.1615C39.0833 54.8784 38.9485 54.2045 38.5443 53.5631C38.1047 52.8893 37.4635 52.5494 36.5505 52.5494C34.8299 52.5494 33.8515 53.899 33.8515 56.2962V56.3638H33.8513ZM46.2399 51.6385C47.3523 50.9306 47.824 50.6941 49.0415 50.2206C50.728 49.5127 52.1799 49.2098 53.7658 49.2098C56.668 49.2098 58.6592 50.2889 59.3348 52.2136C59.5718 52.9215 59.6376 53.4617 59.6376 55.3188L59.5379 61.124V61.4271C59.5379 63.2841 59.8407 63.9924 61.1579 64.9707L58.7614 67.7398C57.7147 67.3007 56.7704 66.5251 56.3308 65.6464C55.6895 66.2538 55.6211 66.3221 55.2843 66.5567C54.4396 67.1648 53.2248 67.5037 51.807 67.5037C47.9604 67.5037 45.867 65.5459 45.867 62.1029C45.867 58.0522 48.6685 56.1625 54.171 56.1625C54.5079 56.1625 54.7109 56.1625 55.1837 56.1968V55.4869C55.1837 53.5634 54.8125 52.9218 53.1584 52.9218C51.7064 52.9218 50.0181 53.6299 48.1627 54.8798L46.2399 51.6385ZM55.1154 59.301H54.9132C51.7748 59.301 50.6938 59.8752 50.6938 61.9344C50.6938 63.2841 51.5384 64.1943 52.6849 64.1943C53.5294 64.1943 54.3732 63.7574 55.048 63.0135L55.1154 59.301ZM72.4636 49.3087L71.3164 52.3133H68.4133V61.1215C68.4133 63.3164 68.8176 63.8906 70.372 63.8906C70.7771 63.8906 71.1824 63.788 71.9902 63.5511L72.5661 66.2529C71.2489 66.792 70.0675 67.029 68.8859 67.029C66.5919 67.029 64.7348 66.0156 64.2281 64.498C63.9585 63.756 63.9243 63.4173 63.9243 61.8303V52.3133H62.2038V49.3769H63.9243C63.9243 47.6886 63.9243 46.5413 64.0933 45.2582L68.6836 44.1109C68.5148 45.6967 68.4133 47.5539 68.4133 49.3087H72.4636ZM73.4745 42.693L78.099 41.6129C78.3022 42.559 78.402 44.1773 78.402 45.8316V49.2754C78.402 49.8146 78.3345 50.5243 78.3345 50.7275C79.5168 49.6123 81.4748 48.8702 83.2295 48.8702C85.3554 48.8702 87.1776 49.8829 87.7175 51.3347C88.0562 52.3133 88.157 52.582 88.157 54.5397V66.6238H83.7345V55.0123C83.7345 53.2916 83.2637 52.6501 81.9797 52.6501C80.8663 52.6501 79.4146 53.3258 78.402 54.2369V66.6238H73.8115V46.642C73.8115 45.022 73.6776 43.4012 73.4745 42.693ZM104.256 62.0326L106.011 64.7344C104.02 66.3544 101.928 67.1308 99.4978 67.1308C94.5364 67.1308 91.3295 63.6193 91.3295 58.1861C91.3295 55.08 91.971 53.0222 93.4896 51.3339C94.9073 49.747 96.628 49.005 98.9237 49.005C100.916 49.005 102.804 49.6788 103.92 50.8279C105.506 52.4462 106.214 54.7769 106.214 58.3891V59.4358H96.223V59.5698C96.223 62.2356 97.5402 63.7561 99.8692 63.7561C101.421 63.756 102.873 63.1819 104.256 62.0326ZM96.2914 56.1266H101.523V55.9244C101.523 54.643 101.388 53.9666 100.983 53.3251C100.545 52.651 99.9033 52.3126 98.9921 52.3126C97.2697 52.3126 96.2914 53.6621 96.2914 56.0583V56.1266ZM108.715 50.0176L112.766 48.9369C113.171 49.6467 113.408 50.4228 113.474 51.4014C114.116 50.5228 115.197 49.6124 116.039 49.2072C116.41 49.0393 117.018 48.9367 117.525 48.9367C118.199 48.9367 118.503 49.005 119.213 49.3097L117.964 53.2917C117.525 53.0555 117.153 52.954 116.647 52.954C115.634 52.954 114.723 53.4266 113.879 54.405V66.6248H109.356V55.0806C109.356 52.751 109.086 50.9962 108.715 50.0176ZM16.8031 74.1097L14.6772 77.3162C13.4965 76.4377 12.2468 75.9985 10.9295 75.9985C9.34544 75.9985 7.79108 76.7765 6.94817 78.0235C6.03635 79.3759 5.631 81.3328 5.631 84.066C5.631 87.2728 5.90145 89.0616 6.6096 90.3429C7.55481 92.0637 9.10838 92.9767 11.1344 92.9767C12.4156 92.9767 13.5291 92.6054 14.6772 91.829C14.812 91.7293 14.9809 91.5928 15.1491 91.4579L17.3108 94.4285C15.4535 95.9463 13.4623 96.6217 10.7947 96.6217C7.55468 96.6217 5.05775 95.575 3.13235 93.3818C1.24365 91.2559 0.298307 88.4201 0.298307 84.977C0.298307 82.0407 0.80424 79.7127 1.88514 77.6874C3.70824 74.2776 7.08293 72.2524 10.863 72.2524C13.192 72.2524 15.5218 72.9963 16.8031 74.1097ZM26.0174 78.5987C28.4818 78.5987 30.4047 79.4429 31.891 81.1971C33.2745 82.8162 33.882 84.7067 33.882 87.5091C33.882 90.4785 33.2063 92.5039 31.7228 94.1904C30.4048 95.6765 28.6842 96.5876 26.0174 96.5876C21.3261 96.5876 18.2541 93.078 18.2541 87.6429C18.2541 82.2104 21.3602 78.5987 26.0174 78.5987ZM26.0855 81.9392C25.0047 81.9392 24.1276 82.6147 23.7566 83.6964C23.4518 84.6067 23.2839 85.8217 23.2839 87.5422C23.2839 89.5341 23.4861 91.0184 23.8571 91.8963C24.2624 92.8407 25.275 93.3142 26.1528 93.3142C28.1106 93.3142 28.9545 91.5593 28.9545 87.4738C28.9545 85.1459 28.6498 83.6266 28.0424 82.8502C27.605 82.2771 26.8951 81.9392 26.0855 81.9392ZM36.447 79.5079L40.5317 78.3945C40.8345 78.8661 40.9691 79.2713 41.1391 80.1503C42.3206 79.0027 43.7708 78.3945 45.3566 78.3945C46.7745 78.3945 47.9561 78.8661 48.868 79.8105C49.1052 80.0479 49.205 80.1818 49.5429 80.6553C51.1287 79.0352 52.5464 78.3945 54.4378 78.3945C55.7874 78.3945 57.0687 78.7979 57.8451 79.4746C58.8253 80.3183 59.1282 81.3308 59.1282 83.6931V95.9794H54.7408V84.5718C54.7408 82.5124 54.5035 82.107 53.323 82.107C52.4783 82.107 51.2978 82.6805 50.3183 83.5592V95.9794H46.0332V84.738C46.0332 82.578 45.7279 82.0732 44.4806 82.0732C43.6362 82.0732 42.4895 82.5126 41.5102 83.3884V95.9795H37.0886V83.9305C37.0886 81.4315 36.9198 80.3524 36.447 79.5079ZM63.3808 78.8322L67.3972 78.1223C67.566 78.7298 67.6685 79.2031 67.7017 79.7423C68.4783 78.7979 70.1988 78.1223 71.9537 78.1223C73.1693 78.1223 74.4181 78.5274 75.3635 79.1693C77.2197 80.418 78.5692 82.6447 78.5692 86.6296C78.5692 90.3413 77.9958 92.2648 76.173 94.1554C74.9924 95.4035 73.4398 96.1131 71.5484 96.1131C70.1988 96.1131 68.9175 95.7747 67.9373 95.2005C68.0057 95.6076 68.0057 96.6202 68.0057 96.6202V102.019L63.6514 103.166V83.1865C63.6511 80.924 63.6172 80.2824 63.3808 78.8322ZM68.0386 91.5226C68.6469 92.0286 69.6254 92.5353 70.5357 92.5353C72.7641 92.5353 73.6417 91.0171 73.6417 87.0662C73.6417 85.4135 73.5078 84.0965 73.2032 83.252C72.8661 82.3076 72.1565 81.8027 71.0433 81.8027C69.9301 81.8027 68.8492 82.2735 68.0386 83.1183V91.5226ZM81.4389 80.5177C82.5523 79.8107 83.0257 79.5737 84.2412 79.1017C85.9277 78.3928 87.3797 78.0901 88.9656 78.0901C91.8677 78.0901 93.859 79.1681 94.5345 81.0938C94.7717 81.8019 94.8373 82.3426 94.8373 84.1981L94.7376 90.0034V90.3063C94.7376 92.1632 95.0405 92.8732 96.3575 93.8526L93.9613 96.6201C92.9145 96.1806 91.9692 95.4042 91.5309 94.5265C90.8893 95.134 90.821 95.2022 90.484 95.4384C89.6394 96.0441 88.4264 96.3828 87.0068 96.3828C83.1601 96.3828 81.0667 94.4258 81.0667 90.9828C81.0667 86.9315 83.8684 85.0426 89.3705 85.0426C89.7077 85.0426 89.9099 85.0426 90.3833 85.0759V84.3671C90.3833 82.4433 90.0122 81.8019 88.358 81.8019C86.9061 81.8019 85.2196 82.5115 83.3623 83.7587L81.4389 80.5177ZM90.3152 88.1811H90.113C86.9747 88.1811 85.8938 88.7544 85.8938 90.8137C85.8938 92.1632 86.7375 93.0743 87.8848 93.0743C88.7294 93.0743 89.5732 92.6367 90.247 91.8946L90.3152 88.1811ZM98.4503 79.4065L102.467 78.2597C102.87 78.9668 103.108 79.709 103.108 80.4198C104.153 79.6776 104.356 79.5411 105.1 79.1359C106.011 78.6639 107.192 78.3937 108.205 78.3937C110.127 78.3937 111.817 79.4064 112.356 80.8925C112.592 81.5321 112.693 82.2759 112.693 83.3551V95.9794H108.239V84.7391C108.239 82.782 107.9 82.2089 106.72 82.2089C105.808 82.2089 104.627 82.816 103.58 83.7603V95.9794H99.0577V83.4576C99.0577 81.9715 98.8529 80.5538 98.4503 79.4065ZM114.887 79.0019L119.511 78.4629L122.516 88.5196C122.819 89.5666 123.426 92.0968 123.426 92.0968C123.426 92.0968 123.763 90.174 123.966 89.3294C124.237 88.2492 124.305 88.0805 124.642 86.9332L127.241 78.7315H132L125.723 96.2487C124.542 99.591 123.663 101.041 122.414 101.953C121.266 102.796 119.78 103.337 118.229 103.54L116.676 100.57C117.655 100.299 118.802 99.894 119.477 99.4213C119.983 99.0502 120.389 98.5784 120.76 98.0052C121.198 97.2955 121.335 96.9926 121.74 95.9793H120.591C120.322 95.1695 120.186 94.8325 119.883 93.9539C119.546 92.907 119.005 91.1864 118.973 91.1183L114.887 79.0019Z" fill="#283B8E"/>
<path d="M88.929 0.730469C88.2568 2.43438 87.6162 4.0125 87.0088 5.60184C85.3887 9.83964 84.9782 14.2375 85.324 18.7263C85.5569 21.7677 85.7667 24.8222 84.7769 27.7691C82.953 33.198 79.1309 36.3111 73.4658 37.0665C67.6545 37.8429 62.9869 35.6898 59.7531 30.9165C54.9368 23.8114 57.0303 12.5833 67.832 9.62423C70.5077 8.89087 73.2697 8.47509 75.9716 7.82489C80.5024 6.73237 84.363 4.338 87.968 1.4761C88.2507 1.25026 88.5395 1.03155 88.929 0.730469Z" fill="#0BA2DC"/>
<path d="M89.3026 8.38932L89.195 8.56711C88.9973 8.43763 88.8705 8.39301 88.6945 8.39301C88.4362 8.39301 88.284 8.52237 88.284 8.72999C88.284 8.89538 88.383 8.99147 88.6271 9.06513L88.8617 9.14036C89.0447 9.19804 89.1426 9.25163 89.2258 9.34878C89.308 9.44329 89.3598 9.58135 89.3598 9.71018C89.3598 9.90104 89.2539 10.0812 89.0753 10.2037C88.9405 10.2895 88.8023 10.329 88.614 10.329C88.3691 10.329 88.159 10.2702 87.9551 10.1443L88.0636 9.95265C88.2342 10.0742 88.4085 10.1286 88.614 10.1286C88.7699 10.1286 88.8532 10.105 88.9405 10.0385C89.0395 9.96321 89.0876 9.86501 89.0876 9.74701C89.0876 9.56301 88.9679 9.43603 88.7183 9.36264L88.5118 9.3006C88.3253 9.24279 88.2291 9.20161 88.1467 9.1166C88.0636 9.02751 88.0172 8.91294 88.0172 8.78226C88.0172 8.43063 88.2841 8.19238 88.6824 8.19238C88.9045 8.19238 89.1084 8.25719 89.3026 8.38932ZM89.9784 8.23607H90.3373L90.7118 9.57687C90.7512 9.72061 90.7654 9.77829 90.7924 9.93747C90.8265 9.76417 90.8406 9.70635 90.8677 9.60234L91.2545 8.23594H91.6167L91.7927 10.2911H91.5469L91.4269 8.7849C91.4174 8.65278 91.412 8.4338 91.412 8.4338C91.3889 8.5426 91.3621 8.65058 91.3317 8.75758L90.8906 10.2911H90.6813L90.2745 8.83282C90.2333 8.67548 90.2027 8.57569 90.1738 8.43195C90.1738 8.43195 90.1579 8.70425 90.1491 8.82938L90.0362 10.291H89.799L89.9784 8.23607Z" fill="#283B8E"/>
<path d="M5.97973 106.336H7.58227L11.8392 117.227H10.2367L9.04635 113.947H4.44015L3.2192 117.227H1.72266L5.97973 106.336ZM4.89698 112.727H8.58952L6.77341 107.648H6.74279L4.89698 112.727ZM12.9507 109.34H14.1708V110.592H14.2014C14.7502 109.614 15.621 109.157 16.7648 109.157C18.84 109.157 19.4797 110.348 19.4797 112.039V117.229H18.1846V111.889C18.1846 110.912 17.5728 110.301 16.582 110.301C15.0101 110.301 14.2461 111.353 14.2461 112.773V117.229H12.9509V109.34H12.9507ZM25.1843 106.334H26.6346V117.229H25.1843V106.334ZM28.8601 106.334H32.8127C33.7587 106.334 35.0549 106.334 35.6965 106.732C36.4132 107.159 36.9779 107.922 36.9779 109.004C36.9779 110.165 36.3826 111.034 35.3596 111.446V111.476C36.7021 111.767 37.4347 112.758 37.4347 114.101C37.4347 115.687 36.275 117.228 34.1247 117.228H28.8602V106.334H28.8601ZM30.3095 111.019H33.2081C34.8553 111.019 35.5275 110.439 35.5275 109.279C35.5275 107.753 34.4754 107.555 33.2081 107.555H30.3095V111.019ZM30.3095 116.008H33.9417C35.2072 116.008 35.9871 115.26 35.9871 114.056C35.9871 112.636 34.8414 112.238 33.6206 112.238H30.3097V116.008H30.3095ZM44.4827 115.489L47.9292 106.335H49.9133V117.229H48.5402V108.165H48.5103L45.1084 117.229H43.8709L40.4689 108.165H40.4393V117.229H39.066V106.335H41.05L44.4827 115.489ZM55.786 106.334H59.7358C60.6827 106.334 61.9781 106.334 62.6205 106.732C63.3372 107.159 63.9018 107.922 63.9018 109.004C63.9018 110.165 63.3066 111.034 62.2834 111.446V111.476C63.6252 111.767 64.3586 112.758 64.3586 114.101C64.3586 115.687 63.1989 117.228 61.0478 117.228H55.786V106.334ZM57.2336 111.019H60.1321C61.7793 111.019 62.4515 110.439 62.4515 109.279C62.4515 107.753 61.3995 107.555 60.1321 107.555H57.2336V111.019ZM57.2336 116.008H60.8656C62.1305 116.008 62.9101 115.26 62.9101 114.056C62.9101 112.636 61.7654 112.238 60.5445 112.238H57.2336V116.008ZM72.3213 117.227H71.1003V115.977H71.0698C70.5219 116.954 69.6502 117.411 68.5072 117.411C66.431 117.411 65.7915 116.221 65.7915 114.527V109.339H67.0893V114.679C67.0893 115.655 67.6984 116.267 68.6893 116.267C70.262 116.267 71.0251 115.214 71.0251 113.795V109.339H72.3213V117.227ZM74.9136 114.741C74.9601 115.901 75.9824 116.267 77.0344 116.267C77.8422 116.267 78.9413 116.084 78.9413 115.092C78.9413 113.064 73.7846 114.437 73.7846 111.401C73.7846 109.814 75.3398 109.157 76.7296 109.157C78.4985 109.157 79.8412 109.706 79.9628 111.63H78.6666C78.5895 110.622 77.6759 110.301 76.8348 110.301C76.0575 110.301 75.157 110.515 75.157 111.309C75.157 112.225 76.5303 112.407 77.7371 112.682C79.0324 112.972 80.3147 113.413 80.3147 114.924C80.3147 116.816 78.5598 117.411 76.959 117.411C75.1875 117.411 73.6928 116.693 73.6176 114.741H74.9136ZM82.9525 107.921H81.6571V106.334H82.9525V107.921ZM81.6555 109.34H82.9507V117.229H81.6555V109.34ZM84.7072 109.34H85.9272V110.592H85.9577C86.5065 109.614 87.3774 109.157 88.5213 109.157C90.5964 109.157 91.2361 110.348 91.2361 112.039V117.229H89.9409V111.889C89.9409 110.912 89.3291 110.301 88.3383 110.301C86.7666 110.301 86.0024 111.353 86.0024 112.773V117.229H84.7072V109.34ZM99.6576 114.726C99.3057 116.481 98.0708 117.411 96.2853 117.411C93.7691 117.411 92.5771 115.657 92.502 113.261C92.502 110.882 94.0581 109.156 96.2082 109.156C99.0011 109.156 99.8562 111.766 99.7791 113.674H93.8751C93.8304 115.045 94.6085 116.267 96.3327 116.267C97.4152 116.267 98.1459 115.764 98.3753 114.726H99.6576ZM98.4059 112.529C98.3307 111.294 97.4293 110.3 96.133 110.3C94.7904 110.3 93.9521 111.308 93.8751 112.529H98.4059ZM102.036 114.741C102.081 115.901 103.105 116.267 104.157 116.267C104.966 116.267 106.064 116.084 106.064 115.092C106.064 113.064 100.907 114.437 100.907 111.401C100.907 109.814 102.463 109.157 103.852 109.157C105.621 109.157 106.964 109.706 107.085 111.63H105.79C105.713 110.622 104.798 110.301 103.958 110.301C103.18 110.301 102.28 110.515 102.28 111.309C102.28 112.225 103.653 112.407 104.86 112.682C106.155 112.972 107.437 113.413 107.437 114.924C107.437 116.816 105.682 117.411 104.08 117.411C102.31 117.411 100.815 116.693 100.74 114.741H102.036ZM109.785 114.741C109.83 115.901 110.854 116.267 111.906 116.267C112.714 116.267 113.813 116.084 113.813 115.092C113.813 113.064 108.656 114.437 108.656 111.401C108.656 109.814 110.211 109.157 111.602 109.157C113.37 109.157 114.713 109.706 114.835 111.63H113.538C113.461 110.622 112.548 110.301 111.706 110.301C110.929 110.301 110.03 110.515 110.03 111.309C110.03 112.225 111.402 112.407 112.609 112.682C113.904 112.972 115.186 113.413 115.186 114.924C115.186 116.816 113.432 117.411 111.829 117.411C110.059 117.411 108.564 116.693 108.489 114.741H109.785Z" fill="#283B8E"/>
</g>
<defs>
<clipPath id="clip0_103_22">
<rect width="132" height="117" fill="white" transform="translate(0 0.730469)"/>
</clipPath>
</defs>
</svg>
